<?xml version="1.0" encoding="UTF-8"?>
<svg xmlns="http://www.w3.org/2000/svg" xmlns:xlink="http://www.w3.org/1999/xlink" width="15px" height="17px" viewBox="0 0 15 17" version="1.1">
<g id="surface1">
<path style=" stroke:none;fill-rule:nonzero;fill:#565872;fill-opacity:1;" d="M 6.378906 2.222656 L 7.121094 1.484375 C 7.4375 1.171875 7.945312 1.171875 8.257812 1.484375 L 14.765625 7.9375 C 15.082031 8.246094 15.082031 8.753906 14.765625 9.0625 L 8.257812 15.515625 C 7.941406 15.828125 7.433594 15.828125 7.121094 15.515625 L 6.378906 14.777344 C 6.058594 14.464844 6.066406 13.949219 6.390625 13.640625 L 10.425781 9.828125 L 0.804688 9.828125 C 0.359375 9.828125 0 9.472656 0 9.03125 L 0 7.96875 C 0 7.527344 0.359375 7.171875 0.804688 7.171875 L 10.425781 7.171875 L 6.390625 3.359375 C 6.0625 3.050781 6.058594 2.535156 6.378906 2.222656 Z M 6.378906 2.222656 "/>
</g>
</svg>
