<?xml version="1.0" encoding="UTF-8"?>
<svg xmlns="http://www.w3.org/2000/svg" xmlns:xlink="http://www.w3.org/1999/xlink" width="25pt" height="25pt" viewBox="0 0 25 25" version="1.1">
<g id="surface1">
<path style=" stroke:none;fill-rule:nonzero;fill:rgb(0%,0%,0%);fill-opacity:1;" d="M 22.804688 2.976562 L 8.054688 2.976562 C 6.84375 2.976562 5.859375 3.964844 5.859375 5.175781 C 5.859375 6.386719 6.84375 7.375 8.054688 7.375 L 22.804688 7.375 C 24.015625 7.375 25 6.386719 25 5.175781 C 25 3.964844 24.015625 2.976562 22.804688 2.976562 Z M 22.804688 2.976562 "/>
<path style=" stroke:none;fill-rule:nonzero;fill:rgb(0%,0%,0%);fill-opacity:1;" d="M 22.804688 10.304688 L 8.054688 10.304688 C 6.84375 10.304688 5.859375 11.289062 5.859375 12.5 C 5.859375 13.710938 6.84375 14.695312 8.054688 14.695312 L 22.804688 14.695312 C 24.015625 14.695312 25 13.710938 25 12.5 C 25 11.289062 24.015625 10.304688 22.804688 10.304688 Z M 22.804688 10.304688 "/>
<path style=" stroke:none;fill-rule:nonzero;fill:rgb(0%,0%,0%);fill-opacity:1;" d="M 22.804688 17.625 L 8.054688 17.625 C 6.84375 17.625 5.859375 18.613281 5.859375 19.824219 C 5.859375 21.035156 6.84375 22.023438 8.054688 22.023438 L 22.804688 22.023438 C 24.015625 22.023438 25 21.035156 25 19.824219 C 25 18.613281 24.015625 17.625 22.804688 17.625 Z M 22.804688 17.625 "/>
<path style=" stroke:none;fill-rule:nonzero;fill:rgb(0%,0%,0%);fill-opacity:1;" d="M 2.195312 2.976562 C 0.984375 2.976562 0 3.964844 0 5.175781 C 0 6.386719 0.984375 7.375 2.195312 7.375 C 3.410156 7.375 4.394531 6.386719 4.394531 5.175781 C 4.394531 3.964844 3.410156 2.976562 2.195312 2.976562 Z M 2.195312 2.976562 "/>
<path style=" stroke:none;fill-rule:nonzero;fill:rgb(0%,0%,0%);fill-opacity:1;" d="M 2.195312 10.304688 C 0.984375 10.304688 0 11.289062 0 12.5 C 0 13.710938 0.984375 14.695312 2.195312 14.695312 C 3.410156 14.695312 4.394531 13.710938 4.394531 12.5 C 4.394531 11.289062 3.410156 10.304688 2.195312 10.304688 Z M 2.195312 10.304688 "/>
<path style=" stroke:none;fill-rule:nonzero;fill:rgb(0%,0%,0%);fill-opacity:1;" d="M 2.195312 17.625 C 0.984375 17.625 0 18.613281 0 19.824219 C 0 21.035156 0.984375 22.023438 2.195312 22.023438 C 3.410156 22.023438 4.394531 21.035156 4.394531 19.824219 C 4.394531 18.613281 3.410156 17.625 2.195312 17.625 Z M 2.195312 17.625 "/>
</g>
</svg>
