<?xml version="1.0" encoding="UTF-8"?>
<svg xmlns="http://www.w3.org/2000/svg" xmlns:xlink="http://www.w3.org/1999/xlink" width="45pt" height="45pt" viewBox="0 0 45 45" version="1.1">
<g id="surface1">
<path style=" stroke:none;fill-rule:nonzero;fill:rgb(88.627451%,29.803922%,29.411765%);fill-opacity:1;" d="M 45 22.5 C 45 34.925781 34.925781 45 22.5 45 C 10.074219 45 0 34.925781 0 22.5 C 0 10.074219 10.074219 0 22.5 0 C 34.925781 0 45 10.074219 45 22.5 Z M 45 22.5 "/>
<path style=" stroke:none;fill-rule:nonzero;fill:rgb(81.960784%,25.098039%,24.705882%);fill-opacity:1;" d="M 45 22.5 C 45 34.875 34.875 45 22.5 45 C 15.328125 45 9 41.765625 4.921875 36.5625 C 8.71875 39.65625 13.640625 41.484375 18.984375 41.484375 C 31.359375 41.484375 41.484375 31.359375 41.484375 18.984375 C 41.484375 13.640625 39.65625 8.71875 36.5625 4.921875 C 41.765625 9 45 15.328125 45 22.5 Z M 45 22.5 "/>
<path style=" stroke:none;fill-rule:nonzero;fill:rgb(100%,100%,100%);fill-opacity:1;" d="M 32.765625 32.765625 C 31.921875 33.609375 30.515625 33.609375 29.671875 32.765625 L 22.5 25.59375 L 15.328125 32.765625 C 14.484375 33.609375 13.078125 33.609375 12.234375 32.765625 C 11.390625 31.921875 11.390625 30.515625 12.234375 29.671875 L 19.40625 22.5 L 12.234375 15.328125 C 11.390625 14.484375 11.390625 13.078125 12.234375 12.234375 C 13.078125 11.390625 14.484375 11.390625 15.328125 12.234375 L 22.5 19.40625 L 29.671875 12.234375 C 30.515625 11.390625 31.921875 11.390625 32.765625 12.234375 C 33.609375 13.078125 33.609375 14.484375 32.765625 15.328125 L 25.59375 22.5 L 32.765625 29.671875 C 33.609375 30.515625 33.609375 31.921875 32.765625 32.765625 Z M 32.765625 32.765625 "/>
</g>
</svg>
