<?xml version="1.0" encoding="UTF-8"?>
<svg xmlns="http://www.w3.org/2000/svg" xmlns:xlink="http://www.w3.org/1999/xlink" width="18pt" height="18pt" viewBox="0 0 18 18" version="1.1">
<g id="surface1">
<path style=" stroke:none;fill-rule:nonzero;fill:#436372;fill-opacity:1;" d="M 4.839844 14.25 L 1.5 16.875 L 1.5 3 C 1.5 2.585938 1.835938 2.25 2.25 2.25 L 15.75 2.25 C 16.164062 2.25 16.5 2.585938 16.5 3 L 16.5 13.5 C 16.5 13.914062 16.164062 14.25 15.75 14.25 Z M 4.320312 12.75 L 15 12.75 L 15 3.75 L 3 3.75 L 3 13.789062 Z M 8.25 7.5 L 9.75 7.5 L 9.75 9 L 8.25 9 Z M 5.25 7.5 L 6.75 7.5 L 6.75 9 L 5.25 9 Z M 11.25 7.5 L 12.75 7.5 L 12.75 9 L 11.25 9 Z M 11.25 7.5 "/>
</g>
</svg>
