<svg 
 xmlns="http://www.w3.org/2000/svg"
 xmlns:xlink="http://www.w3.org/1999/xlink"
 width="51px" height="52px">
<path fill-rule="evenodd"  fill="rgb(163, 187, 200)"
 d="M25.672,0.531 C39.660,0.531 51.000,11.871 51.000,25.859 C51.000,39.847 39.660,51.187 25.672,51.187 C11.683,51.187 0.344,39.847 0.344,25.859 C0.344,11.871 11.683,0.531 25.672,0.531 Z"/>
<path fill-rule="evenodd"  fill="rgb(255, 255, 255)"
 d="M33.883,27.750 C32.696,27.750 31.737,26.790 31.737,25.603 C31.737,24.417 32.696,23.458 33.883,23.458 C35.070,23.458 36.029,24.417 36.029,25.603 C36.029,26.790 35.070,27.750 33.883,27.750 ZM33.883,19.881 C32.696,19.881 31.737,18.921 31.737,17.735 C31.737,16.548 32.696,15.589 33.883,15.589 C35.070,15.589 36.029,16.548 36.029,17.735 C36.029,18.921 35.070,19.881 33.883,19.881 ZM26.014,35.618 C24.828,35.618 23.868,34.659 23.868,33.472 C23.868,32.285 24.828,31.326 26.014,31.326 C27.201,31.326 28.160,32.285 28.160,33.472 C28.160,34.659 27.201,35.618 26.014,35.618 ZM26.014,27.750 C24.828,27.750 23.868,26.790 23.868,25.603 C23.868,24.417 24.828,23.458 26.014,23.458 C27.201,23.458 28.160,24.417 28.160,25.603 C28.160,26.790 27.201,27.750 26.014,27.750 ZM26.014,19.881 C24.828,19.881 23.868,18.921 23.868,17.735 C23.868,16.548 24.828,15.589 26.014,15.589 C27.201,15.589 28.160,16.548 28.160,17.735 C28.160,18.921 27.201,19.881 26.014,19.881 ZM18.146,35.618 C16.959,35.618 16.000,34.659 16.000,33.472 C16.000,32.285 16.959,31.326 18.146,31.326 C19.333,31.326 20.292,32.285 20.292,33.472 C20.292,34.659 19.333,35.618 18.146,35.618 ZM18.146,27.750 C16.959,27.750 16.000,26.790 16.000,25.603 C16.000,24.417 16.959,23.458 18.146,23.458 C19.333,23.458 20.292,24.417 20.292,25.603 C20.292,26.790 19.333,27.750 18.146,27.750 ZM18.146,19.881 C16.959,19.881 16.000,18.921 16.000,17.735 C16.000,16.548 16.959,15.589 18.146,15.589 C19.333,15.589 20.292,16.548 20.292,17.735 C20.292,18.921 19.333,19.881 18.146,19.881 ZM33.883,31.326 C35.070,31.326 36.029,32.285 36.029,33.472 C36.029,34.659 35.070,35.618 33.883,35.618 C32.696,35.618 31.737,34.659 31.737,33.472 C31.737,32.285 32.696,31.326 33.883,31.326 Z"/>
</svg>