<?xml version="1.0" standalone="no"?>
<!DOCTYPE svg PUBLIC "-//W3C//DTD SVG 20010904//EN"
 "http://www.w3.org/TR/2001/REC-SVG-20010904/DTD/svg10.dtd">
<svg version="1.0" xmlns="http://www.w3.org/2000/svg"
 width="1200.000000pt" height="1200.000000pt" viewBox="0 0 1200.000000 1200.000000"
 preserveAspectRatio="xMidYMid meet">
<metadata>
Created by potrace 1.11, written by Peter Selinger 2001-2013
</metadata>
<g transform="translate(0.000000,1200.000000) scale(0.100000,-0.100000)"
fill="#000000" stroke="none">
<path d="M10200 10646 c-3 -2 -17 -6 -30 -9 -14 -2 -43 -11 -65 -21 -22 -10
-44 -19 -50 -20 -14 -4 -63 -23 -108 -43 -21 -9 -44 -16 -52 -16 -8 0 -15 -4
-15 -8 0 -4 -13 -10 -30 -14 -16 -4 -32 -11 -35 -16 -4 -5 -13 -9 -21 -9 -9 0
-40 -11 -70 -25 -30 -14 -60 -25 -67 -25 -7 0 -17 -4 -23 -8 -5 -5 -61 -28
-124 -52 -63 -25 -118 -48 -121 -53 -3 -5 -8 -7 -10 -6 -2 1 -20 -3 -39 -11
-19 -7 -37 -14 -40 -14 -6 -2 -711 -283 -755 -301 -16 -7 -66 -27 -110 -45
-44 -17 -94 -38 -112 -46 -17 -8 -37 -14 -45 -14 -8 0 -19 -5 -25 -11 -6 -6
-17 -12 -24 -13 -8 -2 -30 -9 -49 -17 -19 -7 -38 -12 -42 -11 -5 1 -8 -2 -8
-8 0 -5 -5 -10 -11 -10 -9 0 -230 -85 -319 -123 -14 -6 -27 -11 -30 -12 -6 -2
-50 -19 -95 -38 -16 -6 -32 -12 -35 -13 -3 0 -23 -9 -45 -19 -22 -10 -44 -18
-49 -16 -5 1 -12 -3 -16 -9 -4 -6 -17 -12 -28 -13 -12 -1 -22 -5 -22 -9 0 -4
-6 -8 -12 -8 -12 0 -101 -34 -173 -66 -16 -7 -118 -47 -225 -89 -107 -42 -204
-80 -215 -85 -11 -5 -90 -37 -175 -70 -85 -34 -168 -68 -184 -76 -16 -8 -33
-14 -39 -14 -5 0 -23 -7 -40 -14 -18 -8 -72 -31 -122 -50 -49 -19 -103 -40
-120 -47 -16 -7 -32 -13 -35 -14 -3 -1 -16 -6 -30 -12 -78 -33 -206 -85 -215
-87 -5 -1 -28 -10 -50 -20 -22 -10 -44 -19 -50 -20 -5 -2 -19 -7 -30 -11 -157
-64 -254 -101 -270 -105 -5 -1 -21 -8 -35 -16 -14 -7 -90 -39 -170 -69 -80
-31 -165 -65 -190 -75 -25 -11 -81 -33 -125 -50 -92 -36 -118 -47 -160 -65
-16 -7 -102 -41 -190 -75 -88 -34 -167 -66 -177 -70 -9 -5 -54 -23 -100 -40
-45 -18 -96 -38 -113 -45 -51 -22 -689 -277 -700 -279 -5 -1 -26 -9 -45 -18
-19 -9 -78 -33 -130 -53 -52 -20 -108 -43 -125 -50 -16 -7 -106 -43 -200 -80
-93 -37 -179 -71 -190 -75 -11 -5 -78 -32 -150 -61 -71 -28 -143 -57 -160 -64
-89 -37 -195 -77 -201 -75 -4 1 -10 -2 -13 -7 -3 -4 -31 -17 -61 -27 -30 -10
-59 -22 -65 -26 -5 -4 -55 -24 -110 -45 -55 -20 -113 -43 -130 -51 -16 -7 -66
-27 -110 -44 -44 -17 -94 -37 -112 -45 -17 -8 -35 -15 -40 -15 -4 0 -25 -16
-45 -35 -28 -27 -82 -126 -223 -410 -103 -206 -186 -377 -185 -381 1 -4 -2
-10 -7 -13 -10 -7 -283 -558 -283 -572 0 -5 -5 -9 -10 -9 -6 0 -9 -3 -8 -7 1
-5 -100 -214 -225 -465 -125 -251 -227 -461 -227 -467 0 -6 -4 -11 -9 -11 -5
0 -15 -17 -22 -37 -6 -21 -15 -40 -18 -43 -4 -3 -15 -23 -25 -45 -9 -22 -22
-49 -28 -60 -6 -11 -36 -69 -66 -130 -29 -60 -111 -225 -180 -365 -107 -215
-127 -263 -129 -305 -4 -109 81 -198 212 -220 17 -3 39 -7 50 -10 55 -11 163
-34 185 -39 14 -4 39 -8 55 -11 17 -3 55 -11 85 -17 30 -6 64 -12 75 -14 11
-1 21 -3 23 -4 1 -2 7 -4 12 -5 6 -1 13 -4 18 -5 4 -1 10 -2 14 -1 4 0 58 -10
120 -24 62 -13 125 -26 141 -29 15 -2 35 -7 45 -10 9 -3 33 -8 52 -10 31 -5
55 -9 110 -21 8 -2 15 -4 15 -5 0 -1 11 -3 25 -5 14 -2 36 -6 50 -9 14 -3 45
-10 70 -15 25 -5 115 -23 200 -41 85 -17 166 -33 180 -36 14 -2 36 -7 50 -10
14 -3 39 -8 55 -11 17 -2 37 -6 45 -9 8 -3 26 -8 40 -10 14 -2 54 -11 90 -18
36 -8 81 -17 100 -20 19 -3 46 -8 60 -12 14 -3 34 -7 45 -9 11 -2 56 -11 100
-20 44 -9 89 -19 100 -21 11 -2 40 -8 65 -14 25 -5 57 -12 73 -15 37 -7 70
-13 152 -30 39 -8 82 -16 98 -19 15 -3 36 -7 47 -11 10 -3 41 -10 67 -15 26
-4 59 -11 73 -14 14 -3 39 -8 55 -11 17 -3 50 -9 75 -15 25 -6 59 -12 75 -15
17 -3 41 -7 55 -10 148 -32 222 -47 245 -51 11 -1 20 -3 20 -4 0 -2 19 -6 60
-13 17 -3 66 -12 110 -22 44 -9 94 -19 110 -22 17 -3 79 -16 139 -29 59 -13
112 -21 117 -18 5 3 9 1 9 -5 0 -5 8 -9 18 -9 9 1 40 -4 67 -10 28 -6 62 -14
78 -17 39 -7 70 -14 172 -35 50 -11 101 -21 115 -24 14 -2 72 -14 130 -26 58
-12 116 -23 130 -26 14 -2 45 -9 70 -14 25 -6 54 -12 65 -14 11 -2 31 -7 45
-10 32 -7 78 -16 110 -21 14 -2 36 -6 50 -10 14 -3 36 -8 50 -11 14 -2 36 -7
50 -10 14 -4 35 -8 48 -9 12 -2 44 -8 70 -15 71 -17 184 -40 212 -44 14 -2 61
-11 105 -21 44 -9 89 -18 100 -21 11 -2 43 -8 70 -14 28 -6 59 -12 70 -14 11
-2 31 -7 45 -10 14 -3 39 -8 55 -11 17 -3 40 -8 53 -10 12 -3 32 -7 45 -10 12
-2 34 -7 50 -10 90 -17 115 -23 202 -41 38 -9 80 -17 93 -20 48 -9 69 -13 117
-24 28 -5 59 -12 70 -14 69 -13 100 -19 185 -37 52 -11 102 -21 110 -23 8 -2
33 -7 55 -11 60 -11 78 -14 105 -21 14 -3 43 -9 65 -13 22 -5 119 -24 215 -44
96 -20 186 -38 200 -41 14 -2 36 -7 50 -10 14 -3 36 -8 50 -10 14 -3 70 -14
125 -26 55 -12 112 -23 127 -25 15 -2 31 -6 36 -9 5 -3 27 -8 48 -11 44 -5 78
-12 102 -19 9 -3 31 -8 47 -10 17 -3 96 -19 177 -36 81 -16 158 -32 170 -34
13 -3 23 -5 23 -6 0 -1 9 -3 20 -4 17 -2 62 -11 110 -21 19 -4 170 -35 193
-40 13 -2 31 -6 40 -9 9 -3 37 -8 61 -11 23 -3 47 -7 51 -10 5 -3 21 -7 37 -9
15 -3 39 -7 53 -10 14 -4 36 -8 50 -11 39 -7 107 -21 215 -43 55 -12 111 -23
125 -25 14 -3 61 -13 105 -22 44 -9 91 -19 105 -21 14 -3 68 -14 120 -25 112
-24 112 -24 170 -35 51 -9 59 -11 63 -14 1 -1 11 -3 22 -5 55 -8 102 -17 117
-21 9 -3 27 -7 40 -9 13 -3 55 -11 93 -19 39 -9 81 -18 95 -20 76 -14 96 -18
110 -23 8 -3 26 -7 40 -9 14 -1 36 -5 50 -8 23 -5 148 -31 195 -40 11 -2 31
-7 45 -10 14 -3 37 -8 53 -11 15 -3 39 -8 55 -11 15 -3 36 -7 47 -9 11 -2 31
-6 45 -9 84 -18 273 -57 306 -62 21 -3 42 -8 45 -10 3 -2 21 -6 40 -9 19 -3
90 -17 158 -32 137 -28 203 -28 266 2 51 25 78 51 105 105 18 36 21 53 16 114
-3 39 -8 82 -12 96 -8 37 -11 57 -24 140 -6 41 -14 86 -16 100 -5 27 -41 236
-50 285 -3 17 -7 44 -9 60 -2 17 -7 44 -10 60 -4 17 -8 44 -10 60 -2 17 -4 30
-5 30 -1 0 -3 9 -4 20 -9 63 -23 140 -26 140 -1 0 -3 14 -4 30 -2 17 -13 89
-25 160 -13 72 -25 144 -27 160 -3 17 -14 80 -24 140 -10 61 -22 126 -25 145
-3 19 -10 60 -15 90 -5 30 -12 73 -15 95 -4 22 -8 47 -10 55 -3 8 -7 33 -10
55 -3 22 -21 132 -40 245 -20 113 -38 219 -40 235 -3 17 -7 41 -10 55 -3 14
-8 45 -11 70 -3 25 -8 54 -11 65 -2 11 -6 36 -9 55 -2 19 -6 46 -9 60 -9 44
-14 73 -21 115 -4 22 -8 51 -11 65 -2 14 -6 41 -9 60 -3 19 -8 46 -10 60 -2
14 -6 36 -8 50 -3 14 -5 25 -6 25 -1 0 -4 14 -5 30 -2 17 -6 44 -9 60 -4 17
-9 48 -12 70 -2 22 -8 51 -11 65 -3 14 -7 34 -8 45 -2 16 -30 177 -50 295 -10
55 -19 125 -17 133 1 4 -3 7 -9 7 -5 0 -8 4 -5 9 3 5 2 32 -4 60 -5 27 -12 72
-16 98 -3 26 -8 57 -11 68 -14 67 -26 139 -27 168 -1 15 -3 27 -6 27 -3 0 -6
8 -6 18 0 9 -4 37 -8 62 -4 25 -9 56 -11 70 -2 14 -4 25 -5 25 -1 0 -3 11 -5
25 -2 14 -10 67 -19 118 -25 143 -46 270 -50 305 -3 18 -5 32 -6 32 -2 0 -8
35 -15 85 -3 25 -8 52 -10 60 -2 8 -6 31 -9 50 -3 19 -8 46 -10 60 -7 37 -35
199 -42 244 -3 21 -7 47 -9 56 -7 34 -19 115 -20 130 -1 8 -4 24 -8 35 -3 11
-9 42 -12 69 -3 27 -8 59 -10 70 -7 29 -15 75 -20 115 -3 19 -8 48 -12 65 -3
17 -7 43 -7 59 -1 15 -3 27 -6 27 -3 0 -6 8 -6 18 -1 9 -4 35 -8 57 -8 45 -11
60 -21 130 -4 28 -9 59 -11 70 -3 11 -7 37 -10 58 -3 21 -7 44 -8 50 -6 26
-16 84 -20 112 -3 17 -7 41 -10 55 -3 14 -8 41 -10 60 -3 19 -8 49 -10 65 -11
66 -21 126 -31 183 -2 12 -9 48 -14 80 -6 31 -13 72 -16 90 -3 17 -7 44 -10
60 -2 15 -7 45 -9 67 -3 22 -8 50 -11 63 -10 43 -12 57 -19 105 -4 27 -9 59
-12 70 -2 12 -6 36 -9 52 -2 17 -11 71 -20 120 -9 50 -18 101 -20 115 -3 14
-7 47 -10 74 -3 27 -8 53 -11 57 -2 4 -7 28 -9 52 -3 25 -8 56 -11 68 -3 13
-7 42 -10 64 -2 22 -7 46 -10 54 -2 8 -9 44 -15 80 -5 36 -12 80 -14 96 -3 17
-7 41 -10 55 -3 14 -8 41 -11 60 -3 19 -8 49 -11 65 -3 17 -7 44 -9 60 -1 17
-5 41 -9 55 -3 14 -8 41 -11 60 -7 49 -13 81 -18 106 -2 12 -7 39 -10 60 -19
120 -29 170 -37 180 -5 6 -6 14 -2 17 3 4 1 7 -5 7 -7 0 -12 5 -12 12 0 14
-80 91 -87 84 -3 -2 -19 1 -36 8 -33 13 -118 21 -127 12z m-345 -643 c-9 -26
-18 -55 -20 -63 -2 -8 -12 -42 -23 -75 -11 -33 -39 -121 -62 -195 -23 -74 -48
-153 -56 -175 -16 -48 -105 -335 -109 -350 -1 -5 -7 -23 -13 -38 -7 -16 -12
-31 -12 -35 0 -7 -96 -313 -107 -342 -3 -8 -7 -19 -8 -25 -4 -15 -102 -325
-148 -465 -23 -69 -40 -129 -39 -133 1 -4 -5 -21 -13 -37 -9 -17 -13 -30 -10
-30 3 0 1 -9 -5 -21 -6 -11 -13 -28 -15 -37 -2 -9 -19 -66 -38 -127 -20 -60
-56 -177 -82 -260 -25 -82 -49 -157 -52 -165 -4 -8 -7 -17 -8 -20 -4 -16 -57
-187 -62 -200 -3 -8 -7 -19 -8 -25 -4 -14 -105 -337 -112 -355 -3 -8 -8 -21
-10 -27 -1 -7 -5 -19 -6 -25 -2 -7 -7 -22 -11 -33 -13 -35 -77 -237 -81 -255
-1 -4 -23 -76 -40 -130 -1 -3 -4 -12 -8 -20 -19 -51 -34 -109 -29 -114 3 -3
-1 -6 -8 -6 -7 0 -11 -3 -7 -6 3 -4 0 -23 -8 -43 -8 -20 -24 -70 -35 -111 -12
-41 -27 -81 -34 -89 -6 -8 -10 -17 -8 -20 7 -15 -23 -101 -37 -105 -9 -3 -41
-9 -71 -15 -30 -6 -66 -14 -80 -17 -14 -3 -38 -8 -55 -11 -45 -8 -60 -11 -62
-13 -7 -5 -116 -24 -125 -22 -5 1 -8 -3 -8 -9 0 -5 -4 -8 -9 -5 -5 4 -40 -1
-77 -10 -38 -8 -84 -17 -102 -20 -19 -2 -38 -7 -43 -10 -5 -3 -22 -7 -37 -10
-15 -2 -40 -7 -57 -11 -16 -3 -40 -7 -52 -9 -11 -1 -29 -5 -40 -8 -16 -5 -321
-70 -383 -81 -14 -3 -36 -7 -50 -11 -14 -3 -35 -7 -47 -9 -11 -2 -32 -6 -45
-11 -12 -4 -32 -8 -43 -9 -23 -2 -71 -12 -165 -34 -51 -11 -105 -22 -135 -26
-11 -2 -20 -4 -20 -5 0 -2 -48 -12 -120 -26 -16 -3 -80 -16 -142 -29 -61 -14
-122 -26 -135 -29 -13 -2 -34 -7 -48 -10 -14 -3 -36 -8 -50 -10 -14 -3 -36 -8
-50 -11 -14 -3 -38 -8 -55 -10 -16 -3 -37 -8 -45 -10 -8 -2 -26 -6 -40 -9 -14
-2 -57 -11 -95 -20 -39 -8 -82 -17 -95 -19 -14 -3 -36 -8 -50 -11 -14 -3 -36
-8 -50 -10 -14 -3 -36 -7 -49 -10 -14 -3 -69 -15 -124 -26 l-99 -21 -70 41
c-38 22 -73 40 -78 40 -5 0 -10 3 -12 8 -1 4 -21 16 -43 28 -48 25 -132 71
-240 132 -44 25 -96 54 -115 64 -19 10 -42 23 -50 28 -49 31 -251 140 -260
140 -5 0 -10 3 -10 8 0 4 -24 18 -53 32 -28 14 -54 27 -57 30 -6 7 -209 120
-215 120 -2 0 -38 20 -79 45 -42 25 -81 45 -85 45 -5 0 -11 3 -13 8 -1 4 -21
16 -43 27 -22 11 -56 29 -75 41 -19 11 -64 37 -100 56 -36 20 -87 48 -115 63
-27 16 -59 33 -70 39 -11 6 -28 17 -37 25 -10 8 -18 11 -18 7 0 -4 -12 1 -27
12 -26 17 -146 86 -267 151 -85 47 -149 82 -181 101 -16 10 -52 30 -80 45 -27
15 -70 39 -95 53 -25 13 -74 40 -110 60 -36 19 -69 38 -75 42 -5 4 -37 22 -70
40 -104 58 -129 72 -160 90 -16 9 -55 31 -85 47 -69 38 -139 76 -210 116 l-54
31 49 22 c28 12 53 20 58 17 4 -2 7 1 7 6 0 6 3 10 8 9 4 -1 18 4 32 9 14 6
50 21 80 32 30 12 64 25 75 30 11 5 63 25 115 46 52 20 104 41 115 45 11 5 49
21 85 35 36 14 74 30 85 35 11 5 97 39 190 76 94 36 184 72 200 79 17 7 95 38
175 70 188 73 217 85 265 106 23 10 53 21 68 24 15 4 27 11 27 17 0 5 3 7 8 4
4 -2 25 4 47 14 22 11 43 19 46 20 4 0 24 8 45 17 22 9 44 18 49 19 6 2 60 23
120 47 121 49 138 55 145 54 3 -1 19 6 35 16 27 14 143 63 170 71 6 2 19 7 30
11 37 15 185 76 213 87 15 6 29 12 32 12 7 2 65 25 115 46 22 10 78 32 125 50
47 17 90 36 95 40 6 5 14 8 18 8 8 0 150 54 192 72 11 5 70 29 130 53 61 24
119 48 130 52 11 5 22 9 25 10 3 1 19 7 35 14 107 44 206 81 215 81 5 0 10 4
10 10 0 5 3 9 8 8 6 -2 82 25 147 52 11 5 56 23 100 41 44 17 100 40 125 51
25 11 50 21 57 22 7 1 16 5 19 9 4 4 16 7 26 7 10 0 18 5 18 11 0 5 4 8 8 5 5
-3 19 0 33 7 13 7 51 23 84 36 33 13 74 29 92 37 17 8 34 14 38 14 4 0 23 7
43 16 21 9 46 20 57 25 11 4 79 31 150 60 72 28 141 56 155 62 14 6 27 11 30
12 15 5 49 19 77 31 17 8 35 14 40 14 4 0 19 6 33 13 14 7 54 24 90 37 36 13
70 26 75 30 6 4 28 13 50 20 22 7 58 21 80 31 22 10 99 41 170 69 72 28 139
55 150 60 11 5 67 28 125 50 58 22 114 45 125 50 11 5 117 47 235 94 118 46
229 90 245 97 17 7 32 13 35 14 3 1 14 5 25 10 11 4 47 19 80 32 33 13 69 28
80 32 50 22 91 36 98 33 4 -1 7 3 7 8 0 6 7 10 16 10 8 0 40 11 70 25 30 14
56 25 59 25 2 0 16 5 32 12 15 6 30 12 33 12 8 2 72 28 120 49 25 11 51 20 58
20 6 0 12 4 12 9 0 4 9 8 20 8 18 0 57 17 70 30 3 3 12 6 20 8 8 1 44 14 80
28 36 15 76 31 90 36 14 6 61 25 105 42 44 18 81 31 83 30 2 -1 -4 -24 -13
-51z m323 -616 c-2 -11 1 -31 17 -107 3 -14 7 -41 10 -60 2 -19 6 -44 8 -55 3
-11 8 -40 12 -65 4 -25 9 -52 10 -61 2 -9 6 -34 10 -55 3 -22 8 -52 11 -69 5
-28 7 -43 19 -120 3 -16 7 -41 10 -55 6 -30 15 -83 20 -119 2 -14 4 -26 5 -26
1 0 3 -13 5 -30 3 -16 9 -54 14 -84 6 -30 8 -58 5 -63 -3 -4 0 -8 5 -8 6 0 10
-3 9 -7 -4 -15 11 -107 68 -428 4 -22 8 -53 10 -70 1 -16 3 -30 4 -30 2 0 6
-21 14 -70 4 -22 9 -51 11 -65 18 -109 27 -159 30 -185 3 -16 7 -41 10 -55 11
-58 14 -77 19 -110 3 -19 7 -44 10 -55 2 -11 7 -40 10 -65 3 -25 8 -56 11 -70
3 -14 7 -38 10 -55 2 -16 7 -41 9 -55 4 -21 86 -510 102 -605 3 -16 7 -42 9
-57 3 -16 7 -43 10 -60 3 -18 10 -55 15 -83 5 -27 12 -66 14 -85 3 -19 8 -46
10 -60 3 -14 7 -41 10 -60 3 -19 8 -46 10 -60 3 -14 7 -41 10 -60 3 -19 8 -48
11 -65 3 -16 7 -43 10 -60 3 -16 7 -39 9 -50 2 -11 7 -42 11 -70 5 -27 9 -52
10 -55 5 -18 18 -102 30 -185 2 -16 7 -43 10 -60 4 -16 8 -41 10 -55 2 -14 4
-25 5 -25 1 0 4 -13 5 -30 2 -16 6 -43 9 -60 8 -40 44 -250 51 -300 4 -22 8
-47 11 -56 3 -9 7 -36 9 -60 3 -24 7 -55 11 -69 3 -14 7 -38 10 -55 3 -16 9
-55 14 -85 5 -30 12 -68 14 -85 13 -77 17 -101 21 -115 2 -8 6 -35 9 -60 3
-25 9 -56 12 -70 3 -14 7 -36 9 -50 2 -14 6 -36 8 -50 3 -14 7 -43 11 -65 3
-23 9 -52 12 -65 3 -14 6 -36 8 -50 2 -14 9 -56 15 -95 12 -69 15 -84 25 -155
5 -34 9 -55 21 -110 3 -14 7 -41 10 -60 2 -19 7 -46 9 -60 3 -14 7 -41 10 -60
3 -19 8 -46 10 -60 16 -87 28 -158 31 -175 1 -11 6 -42 10 -70 5 -27 9 -59 11
-70 1 -11 3 -20 4 -20 1 0 4 -11 5 -25 2 -14 11 -65 19 -115 9 -49 18 -104 20
-122 3 -17 10 -60 17 -95 14 -76 16 -90 24 -147 3 -25 8 -48 11 -53 3 -4 -2
-5 -10 -2 -8 3 -17 12 -20 20 -7 19 -139 198 -148 202 -5 2 -8 10 -8 18 0 8
-3 14 -7 14 -5 0 -19 17 -33 38 -22 33 -95 133 -204 282 -23 30 -47 61 -53 68
-7 7 -13 17 -13 22 0 5 -6 15 -12 22 -14 14 -43 53 -148 198 -38 52 -73 100
-77 105 -5 6 -34 46 -66 90 -31 44 -61 85 -65 90 -5 6 -82 111 -172 235 -90
124 -167 229 -172 235 -7 9 -95 129 -250 345 -26 36 -51 70 -56 76 -5 5 -22
29 -37 52 -15 23 -32 42 -37 42 -5 0 -7 4 -4 9 4 5 3 11 -2 13 -7 3 -213 281
-315 425 -86 123 -372 509 -379 511 -4 2 -6 8 -2 13 3 5 1 9 -3 9 -13 0 -42
54 -39 71 2 7 6 21 9 29 11 29 38 117 41 136 2 11 11 37 20 57 8 21 15 38 14
40 -1 1 14 49 32 107 18 58 33 111 33 118 0 6 5 12 10 12 6 0 8 3 5 6 -4 3 11
57 32 120 21 63 37 114 35 114 -2 0 3 17 11 37 9 20 17 44 19 52 2 9 17 61 35
116 39 124 38 119 37 125 0 3 6 16 13 30 7 13 14 31 14 40 2 14 37 126 133
424 19 59 36 113 37 120 1 6 24 78 50 161 27 82 49 154 50 160 1 5 4 15 8 20
3 6 9 27 13 48 4 20 10 37 14 37 4 0 8 6 9 13 1 18 8 46 25 97 13 40 90 283
119 380 6 19 13 40 17 45 5 10 9 23 15 55 2 8 6 22 9 30 27 71 81 252 79 263
-1 4 2 7 6 7 5 0 9 6 9 13 0 10 49 178 69 237 3 8 4 15 2 16 -2 0 3 8 10 17 8
9 11 21 7 27 -3 5 -1 10 6 10 7 0 10 3 6 6 -3 3 1 25 10 47 8 23 16 47 17 52
2 8 24 81 31 105 1 3 4 12 8 20 15 38 37 112 37 126 0 8 5 12 10 9 6 -4 10
-12 8 -18z m-8228 -2635 c0 -4 12 -13 28 -19 27 -12 115 -60 202 -111 25 -14
59 -33 75 -42 100 -54 191 -104 195 -109 5 -5 65 -38 145 -79 17 -9 33 -20 37
-26 4 -6 8 -7 8 -3 0 5 12 0 28 -11 26 -18 162 -93 209 -116 13 -6 23 -14 23
-18 0 -5 9 -8 20 -8 11 0 20 -4 20 -9 0 -5 12 -14 28 -20 15 -6 45 -22 67 -36
22 -13 50 -29 61 -34 12 -5 88 -48 170 -94 82 -47 169 -96 194 -109 25 -14
230 -128 455 -254 226 -125 428 -237 450 -249 22 -11 42 -22 45 -25 3 -3 14
-10 25 -16 38 -20 140 -77 175 -97 19 -11 53 -30 75 -42 22 -13 65 -37 95 -54
30 -17 74 -41 97 -53 24 -12 41 -23 40 -25 -4 -3 -291 -65 -317 -67 -9 -1 -21
-6 -28 -10 -7 -4 -16 -6 -19 -3 -3 3 -15 2 -27 -3 -13 -4 -38 -11 -57 -14 -19
-3 -66 -12 -104 -20 -39 -8 -82 -17 -95 -20 -14 -2 -70 -14 -125 -26 -139 -30
-126 -27 -265 -55 -69 -14 -134 -27 -145 -30 -17 -3 -162 -34 -240 -51 -11 -2
-45 -9 -75 -15 -53 -10 -94 -19 -115 -25 -5 -1 -28 -5 -50 -9 -22 -4 -43 -9
-46 -11 -4 -2 -26 -6 -49 -9 -24 -3 -46 -8 -50 -10 -4 -2 -22 -7 -41 -10 -19
-3 -54 -11 -79 -16 -25 -6 -57 -12 -72 -14 -15 -2 -44 -8 -65 -14 -21 -5 -51
-12 -68 -15 -16 -2 -75 -14 -130 -26 -55 -12 -109 -24 -120 -25 -11 -2 -31 -6
-45 -10 -14 -3 -36 -7 -50 -10 -53 -10 -72 -14 -88 -19 -9 -3 -28 -7 -42 -10
-24 -4 -100 -19 -110 -21 -3 -1 -16 -5 -30 -8 -14 -4 -38 -8 -55 -11 -16 -3
-50 -9 -75 -14 -25 -6 -90 -19 -145 -31 -55 -11 -145 -30 -200 -41 -55 -12
-111 -24 -124 -26 -12 -3 -53 -12 -89 -20 -37 -9 -80 -17 -97 -19 -16 -2 -48
-9 -70 -14 -42 -10 -97 -21 -130 -26 -11 -2 -21 -4 -22 -5 -2 -2 -6 -3 -10 -4
-16 -4 -89 -18 -113 -23 -14 -2 -53 -10 -86 -18 -34 -8 -73 -16 -85 -19 -13
-2 -63 -12 -111 -22 -48 -10 -90 -16 -93 -12 -6 5 11 44 25 58 3 3 19 34 35
70 17 36 34 68 38 71 5 3 8 9 7 13 -1 6 278 579 300 616 5 8 18 33 28 55 97
202 448 902 456 907 6 4 8 8 4 8 -4 0 13 40 37 90 25 49 45 93 44 96 0 4 3 10
8 13 7 5 124 235 128 251 3 13 137 276 147 287 12 14 28 17 28 5z m6699 -1358
c13 -19 27 -34 32 -34 5 0 9 -5 9 -12 0 -6 38 -62 85 -124 47 -63 85 -118 85
-123 0 -5 4 -11 8 -13 5 -1 46 -55 92 -118 47 -63 88 -116 92 -118 5 -2 8 -8
8 -14 0 -9 57 -88 93 -129 8 -9 23 -30 33 -48 10 -17 22 -31 26 -31 4 0 8 -4
8 -9 0 -8 67 -103 114 -161 6 -9 27 -38 46 -65 18 -28 36 -52 39 -55 4 -3 35
-45 71 -95 35 -49 68 -91 72 -93 4 -2 8 -8 8 -12 0 -7 64 -98 108 -155 5 -6
33 -44 62 -85 30 -41 58 -76 62 -78 5 -2 8 -10 8 -18 0 -8 3 -14 8 -14 4 0 18
-17 32 -38 13 -20 46 -65 72 -98 26 -34 48 -66 48 -72 0 -6 3 -12 8 -14 4 -1
35 -41 69 -88 34 -47 66 -89 70 -95 5 -5 24 -32 43 -60 19 -27 40 -56 47 -63
7 -7 20 -26 30 -42 9 -17 21 -30 25 -30 4 0 8 -6 8 -14 0 -8 3 -16 8 -18 4 -1
32 -37 61 -78 30 -41 57 -77 60 -80 3 -3 11 -13 16 -22 8 -13 169 -236 197
-273 4 -5 26 -33 48 -62 22 -29 40 -55 40 -58 0 -2 7 -13 15 -22 19 -24 99
-132 158 -215 26 -36 54 -74 63 -82 8 -9 13 -16 9 -16 -8 0 -89 41 -95 49 -3
3 -21 14 -40 23 -33 16 -100 53 -215 118 -27 15 -66 37 -85 47 -19 11 -76 43
-126 71 -51 29 -97 52 -103 52 -6 0 -11 5 -11 10 0 6 -4 10 -9 10 -5 0 -57 27
-115 60 -58 33 -110 60 -116 60 -5 0 -10 4 -10 8 0 4 -12 13 -27 19 -29 12
-130 67 -186 101 -18 11 -63 37 -102 57 -38 21 -82 47 -97 57 -16 11 -28 16
-28 11 0 -4 -4 -3 -8 2 -4 6 -41 28 -82 49 -41 22 -77 42 -80 45 -3 3 -23 15
-45 27 -63 32 -139 75 -151 85 -6 5 -14 6 -17 2 -4 -3 -7 -1 -7 5 0 7 -4 12
-10 12 -5 0 -31 13 -57 28 -52 31 -166 94 -223 124 -19 10 -48 27 -65 37 -16
9 -55 31 -85 48 -30 16 -116 64 -190 105 -196 109 -219 122 -285 158 -71 39
-208 116 -285 159 -30 18 -71 39 -90 49 -19 9 -37 19 -40 22 -5 5 -10 8 -115
65 -38 21 -74 41 -80 45 -5 4 -39 23 -75 42 -36 20 -83 46 -105 58 -22 12 -65
36 -95 53 -30 16 -89 48 -130 72 -92 51 -159 89 -225 125 -27 15 -66 36 -85
47 -147 82 -177 99 -195 110 -11 7 -29 16 -40 22 -11 5 -85 45 -164 90 -79 45
-148 81 -153 81 -4 0 -8 5 -8 11 0 5 -4 8 -9 5 -5 -4 -11 -3 -13 1 -1 5 -28
21 -58 37 -157 83 -168 91 -137 94 32 3 86 14 262 52 105 22 204 43 220 46 17
2 37 7 45 9 8 2 26 6 40 9 14 3 34 7 45 10 55 13 183 39 202 41 11 2 29 6 40
9 17 5 67 15 108 21 11 2 49 10 85 19 36 8 79 17 95 20 17 3 39 8 50 10 11 3
54 12 95 21 41 9 86 18 100 21 14 2 36 7 50 10 14 3 36 8 50 10 14 2 54 11 90
19 36 8 76 17 90 19 14 3 25 5 25 6 0 1 11 3 25 4 14 2 34 6 45 9 11 3 36 9
55 13 44 8 65 12 65 14 0 1 11 3 25 5 22 3 79 15 270 57 25 5 56 11 70 14 75
12 146 27 152 33 20 18 55 7 77 -25z m-3086 -656 c34 -18 64 -36 65 -40 2 -5
8 -8 12 -8 5 0 37 -17 72 -37 35 -21 69 -38 77 -39 8 -2 17 -7 20 -11 3 -5 40
-27 81 -50 148 -80 195 -106 223 -125 15 -11 27 -16 27 -12 0 4 8 1 18 -7 9
-8 26 -19 37 -25 11 -6 43 -23 70 -39 28 -15 79 -43 115 -63 36 -19 70 -38 75
-42 6 -4 42 -25 80 -45 39 -21 88 -49 110 -62 22 -13 60 -33 85 -46 25 -12 47
-25 48 -29 2 -5 8 -8 12 -8 5 0 31 -13 57 -28 26 -16 80 -46 118 -67 39 -21
124 -68 190 -105 66 -37 145 -81 175 -97 50 -28 154 -85 285 -158 28 -15 84
-47 125 -70 102 -57 166 -93 225 -125 63 -34 122 -67 260 -145 61 -34 135 -75
165 -92 44 -24 346 -192 555 -308 104 -58 120 -68 127 -79 4 -6 8 -7 8 -3 0 4
21 -4 48 -19 26 -15 72 -41 102 -57 30 -17 71 -40 90 -51 19 -12 53 -30 75
-41 22 -11 42 -23 43 -27 2 -5 8 -8 12 -8 5 0 31 -13 57 -28 26 -16 80 -46
118 -66 108 -60 165 -91 225 -125 30 -18 71 -39 90 -49 19 -9 37 -19 40 -22 3
-3 14 -10 25 -16 221 -120 407 -227 380 -220 -28 7 -116 27 -140 31 -11 2 -31
6 -45 9 -14 3 -38 8 -55 11 -44 9 -72 14 -102 21 -16 3 -50 10 -76 14 -26 5
-57 12 -68 15 -12 4 -31 8 -42 10 -12 2 -49 9 -82 16 -33 6 -69 13 -80 15 -11
1 -20 3 -20 4 0 2 -17 6 -60 14 -45 8 -127 25 -155 31 -14 3 -38 8 -55 11 -16
3 -48 9 -70 14 -22 5 -54 11 -72 15 -18 3 -43 9 -56 14 -14 6 -27 8 -30 5 -2
-2 -35 3 -73 12 -38 9 -78 18 -89 20 -11 2 -65 13 -120 24 -55 11 -110 22
-123 25 -13 2 -31 6 -40 9 -9 3 -33 7 -52 10 -60 10 -93 17 -102 22 -5 3 -25
7 -46 9 -41 5 -75 11 -102 20 -10 3 -31 8 -46 10 -16 2 -40 7 -54 10 -14 3
-34 7 -45 10 -11 2 -31 6 -45 10 -14 3 -38 7 -55 10 -16 2 -39 6 -50 9 -11 2
-65 14 -121 25 -55 12 -109 23 -120 26 -85 17 -234 47 -254 50 -14 2 -25 4
-25 5 0 2 -26 8 -70 15 -22 3 -48 8 -57 11 -21 6 -53 13 -98 20 -19 3 -38 8
-41 10 -4 2 -24 6 -45 9 -22 4 -47 8 -56 11 -27 8 -61 15 -98 20 -19 2 -44 7
-55 11 -11 3 -29 7 -40 9 -11 1 -52 9 -90 18 -83 17 -115 24 -152 31 -39 8
-74 14 -103 21 -14 3 -36 7 -50 10 -14 2 -70 14 -125 25 -55 12 -109 23 -120
25 -22 4 -58 12 -95 20 -14 3 -35 7 -47 9 -12 2 -34 6 -50 9 -15 4 -39 9 -53
11 -24 5 -43 9 -85 18 -11 3 -90 19 -175 36 -165 33 -177 36 -255 52 -27 6
-61 12 -75 15 -14 2 -36 7 -50 10 -14 4 -34 8 -45 10 -33 5 -79 15 -95 19 -8
2 -31 7 -50 11 -40 7 -63 12 -70 14 -3 1 -9 2 -13 1 -5 -1 -26 3 -48 9 -22 6
-53 13 -69 15 -16 2 -33 6 -37 8 -4 3 -24 8 -43 11 -19 3 -68 12 -107 20 -98
21 -135 28 -155 30 -10 1 -20 5 -24 8 -3 4 -12 4 -19 2 -7 -3 -16 0 -20 5 -3
6 -9 9 -13 7 -4 -2 -48 4 -97 15 -50 10 -121 26 -160 34 -38 8 -83 17 -100 21
-16 3 -41 8 -55 9 -14 2 -25 4 -25 5 0 2 -15 5 -60 13 -29 5 -245 50 -335 69
-25 5 -56 11 -70 13 -14 2 -25 4 -25 5 0 2 -20 6 -65 14 -19 3 -75 14 -125 25
-49 11 -106 23 -125 26 -19 3 -42 8 -50 10 -8 2 -26 6 -40 9 -14 2 -47 9 -73
15 -27 6 -53 9 -58 6 -5 -4 -9 -1 -9 6 0 7 -2 10 -5 7 -4 -3 -25 -1 -48 4 -23
5 -51 11 -62 14 -11 2 -87 17 -170 34 -82 17 -159 33 -170 35 -11 2 -29 5 -40
8 -19 4 -83 17 -115 23 -15 3 -75 15 -95 19 -5 2 -35 8 -65 14 -30 6 -66 14
-80 17 -14 3 -38 7 -55 9 -16 2 -32 4 -35 6 -3 1 -9 3 -15 4 -5 1 -21 4 -35 8
-14 3 -50 10 -80 16 -30 6 -65 13 -78 16 -12 3 -32 7 -45 10 -12 3 -56 12 -97
20 -77 16 -103 21 -143 30 -12 3 -35 8 -52 11 -16 3 -84 16 -150 30 -66 14
-133 27 -150 30 -89 12 -183 39 -143 41 27 2 94 15 197 39 35 8 66 12 69 9 3
-3 10 -1 16 4 6 5 29 12 51 15 22 4 56 11 75 16 19 5 51 12 70 15 19 3 46 8
60 10 14 3 34 7 45 9 11 3 40 9 65 16 25 6 54 12 65 14 11 2 47 9 80 16 33 8
65 14 70 15 6 1 12 3 15 4 3 2 16 4 30 6 53 7 95 17 106 26 6 5 13 6 17 3 3
-3 45 3 94 15 48 11 102 23 118 25 17 3 39 8 50 10 11 3 89 19 174 36 84 17
156 32 160 34 3 2 23 7 43 10 21 3 57 11 80 16 24 6 55 12 70 15 16 2 92 18
170 34 79 17 154 32 168 35 14 2 57 11 95 20 79 18 120 26 152 31 11 2 29 6
40 9 10 3 32 8 48 11 17 2 40 7 53 10 70 16 75 17 142 30 28 5 70 15 85 19 6
1 33 7 60 11 57 10 64 12 68 15 1 1 13 4 27 6 14 3 108 23 210 45 102 22 192
40 200 41 8 0 51 9 95 19 44 10 96 21 115 24 19 3 42 8 50 10 31 9 76 17 92
17 10 -1 20 4 23 9 4 5 9 7 13 5 4 -2 95 15 202 38 107 23 208 43 223 44 16 1
54 -11 90 -30z"/>
</g>
</svg>
